<?xml version="1.0" encoding="UTF-8"?>
<svg width="1024px" height="1024px" viewBox="0 0 1024 1024" version="1.1" xmlns="http://www.w3.org/2000/svg" xmlns:xlink="http://www.w3.org/1999/xlink">
    <!-- Generator: Sketch 57.1 (83088) - https://sketch.com -->
    <title>1024</title>
    <desc>Created with Sketch.</desc>
    <g id="Page-1" stroke="none" stroke-width="1" fill="none" fill-rule="evenodd">
        <g id="1024">
            <g id="circle">
                <rect id="Rectangle" fill="#61045F" x="0" y="0" width="1024" height="1024" rx="512"></rect>
                <path d="M473.313108,402.076923 C473.313108,378.751313 492.782338,369.679027 524.129987,369.679027 C569.631109,369.679027 627.40441,383.604439 672.927408,408.154261 L672.927408,267.348021 C623.357435,247.607603 573.809337,240 524.26124,240 C402.917621,240 322,303.33111 322,409.181725 C322,574.690814 549.439986,547.823733 549.439986,619.199664 C549.439986,646.810017 525.398768,655.751136 492.03857,655.751136 C442.490473,655.751136 378.526395,635.289307 328.322031,608.006869 L328.322031,750.758731 C383.951528,774.652726 440.324794,784.686892 491.907317,784.686892 C616.291635,784.686892 702,723.257683 702,615.658194 C702,437.382322 473.313108,469.364861 473.313108,402.076923" id="Path" fill="#F7F8FB"></path>
            </g>
        </g>
    </g>
</svg>